<?xml version="1.0" encoding="UTF-8" standalone="no" ?>
<!DOCTYPE svg PUBLIC "-//W3C//DTD SVG 1.1//EN" "http://www.w3.org/Graphics/SVG/1.1/DTD/svg11.dtd">
<svg xmlns="http://www.w3.org/2000/svg" xmlns:xlink="http://www.w3.org/1999/xlink" version="1.1" width="1080" height="1080" viewBox="0 0 1080 1080" xml:space="preserve">
<desc>Created with Fabric.js 5.2.4</desc>
<defs>
</defs>
<g transform="matrix(1 0 0 1 540 540)" id="d00e3dd4-f42f-4647-9633-99862ffaef1e"  >
<rect style="stroke: none; stroke-width: 1; stroke-dasharray: none; stroke-linecap: butt; stroke-dashoffset: 0; stroke-linejoin: miter; stroke-miterlimit: 4; fill: rgb(255,255,255); fill-rule: nonzero; opacity: 1; visibility: hidden;" vector-effect="non-scaling-stroke"  x="-540" y="-540" rx="0" ry="0" width="1080" height="1080" />
</g>
<g transform="matrix(1 0 0 1 540 540)" id="2371ee6c-3ac3-415f-b1cd-5217eefa5a04"  >
</g>
<g transform="matrix(1 0 0 1 540 540)"  >
<g style="" vector-effect="non-scaling-stroke"   >
		<g transform="matrix(0.13 0 0 -0.13 172.13 -103.72)"  >
<path style="stroke: none; stroke-width: 1; stroke-dasharray: none; stroke-linecap: butt; stroke-dashoffset: 0; stroke-linejoin: miter; stroke-miterlimit: 4; fill: rgb(90,44,44); fill-rule: nonzero; opacity: 1;" vector-effect="non-scaling-stroke"  transform=" translate(-3798.5, -3450.91)" d="M 3760 3833 C 3713 3780 3690 3724 3690 3658 L 3690 3602 L 3636 3631 C 3606 3648 3558 3664 3529 3667 L 3477 3673 L 3483 3625 C 3492 3563 3536 3484 3583 3446 C 3605 3428 3647 3410 3688 3399 C 3749 3384 3755 3380 3758 3355 C 3761 3333 3753 3320 3714 3286 C 3671 3247 3667 3240 3663 3190 C 3660 3147 3663 3128 3679 3103 C 3719 3039 3793 3015 3858 3044 C 3906 3066 3932 3102 3938 3156 C 3944 3213 3927 3253 3878 3295 C 3847 3321 3839 3334 3842 3356 C 3845 3379 3852 3385 3898 3396 C 3967 3414 3997 3430 4042 3476 C 4079 3512 4120 3600 4120 3641 C 4120 3652 4113 3663 4104 3667 C 4079 3676 3987 3652 3948 3625 L 3913 3601 L 3908 3668 C 3905 3707 3895 3752 3883 3775 C 3860 3819 3816 3870 3802 3870 C 3796 3870 3778 3853 3760 3833 z" stroke-linecap="round" />
</g>
		<g transform="matrix(0.13 0 0 -0.13 -163.82 -82.91)"  >
<path style="stroke: none; stroke-width: 1; stroke-dasharray: none; stroke-linecap: butt; stroke-dashoffset: 0; stroke-linejoin: miter; stroke-miterlimit: 4; fill: rgb(90,44,44); fill-rule: nonzero; opacity: 1;" vector-effect="non-scaling-stroke"  transform=" translate(-1278.85, -3294.79)" d="M 1133 3653 C 1073 3632 997 3561 967 3497 C 944 3447 938 3442 900 3436 C 746 3412 655 3255 702 3098 C 717 3048 780 2976 834 2947 C 873 2926 888 2925 1180 2922 C 1442 2919 1490 2921 1527 2935 C 1586 2958 1610 2991 1610 3050 C 1610 3131 1546 3187 1463 3177 C 1412 3172 1380 3147 1380 3114 C 1380 3082 1410 3068 1448 3081 C 1500 3099 1543 3061 1506 3031 C 1496 3022 1409 3020 1192 3022 C 905 3025 890 3026 863 3046 C 765 3119 765 3241 863 3314 C 886 3331 906 3335 961 3335 C 1039 3335 1050 3343 1050 3400 C 1050 3444 1089 3507 1134 3538 C 1175 3566 1251 3576 1310 3560 C 1368 3544 1424 3489 1441 3430 C 1462 3357 1478 3347 1544 3371 C 1586 3386 1650 3368 1696 3328 C 1784 3251 1791 3142 1715 3053 C 1674 3005 1671 2977 1704 2955 C 1776 2908 1880 3065 1867 3202 C 1853 3356 1723 3479 1571 3480 C 1538 3481 1532 3486 1505 3532 C 1472 3588 1403 3643 1342 3660 C 1289 3674 1182 3671 1133 3653 z" stroke-linecap="round" />
</g>
		<g transform="matrix(0.13 0 0 -0.13 17.37 -74.42)"  >
<path style="stroke: none; stroke-width: 1; stroke-dasharray: none; stroke-linecap: butt; stroke-dashoffset: 0; stroke-linejoin: miter; stroke-miterlimit: 4; fill: rgb(90,44,44); fill-rule: nonzero; opacity: 1;" vector-effect="non-scaling-stroke"  transform=" translate(-2637.76, -3231.19)" d="M 2245 3649 C 2142 3641 2096 3626 2082 3595 C 2067 3563 2081 3524 2110 3515 C 2122 3511 2161 3514 2197 3520 C 2300 3540 2488 3528 2578 3497 C 2813 3415 2995 3223 3060 2989 C 3071 2948 3080 2902 3080 2885 C 3080 2841 3105 2810 3140 2810 C 3204 2810 3215 2868 3180 3004 C 3137 3165 3065 3288 2936 3415 C 2756 3593 2528 3670 2245 3649 z" stroke-linecap="round" />
</g>
		<g transform="matrix(0.13 0 0 -0.13 4.33 -55.5)"  >
<path style="stroke: none; stroke-width: 1; stroke-dasharray: none; stroke-linecap: butt; stroke-dashoffset: 0; stroke-linejoin: miter; stroke-miterlimit: 4; fill: rgb(90,44,44); fill-rule: nonzero; opacity: 1;" vector-effect="non-scaling-stroke"  transform=" translate(-2540, -3089.28)" d="M 2229 3386 C 2149 3372 2130 3358 2130 3314 C 2130 3264 2164 3244 2227 3259 C 2305 3276 2351 3278 2425 3265 C 2623 3230 2790 3058 2825 2852 C 2833 2801 2852 2780 2889 2780 C 2923 2780 2950 2808 2950 2841 C 2950 2877 2925 2962 2897 3024 C 2806 3223 2636 3352 2416 3390 C 2344 3402 2315 3402 2229 3386 z" stroke-linecap="round" />
</g>
		<g transform="matrix(0.13 0 0 -0.13 127.79 -66.82)"  >
<path style="stroke: none; stroke-width: 1; stroke-dasharray: none; stroke-linecap: butt; stroke-dashoffset: 0; stroke-linejoin: miter; stroke-miterlimit: 4; fill: rgb(90,44,44); fill-rule: nonzero; opacity: 1;" vector-effect="non-scaling-stroke"  transform=" translate(-3465.93, -3174.12)" d="M 3392 3300 C 3374 3289 3350 3260 3338 3235 C 3318 3194 3317 3186 3329 3143 C 3349 3068 3395 3030 3467 3030 C 3575 3030 3643 3143 3595 3244 C 3563 3311 3458 3340 3392 3300 z" stroke-linecap="round" />
</g>
		<g transform="matrix(0.13 0 0 -0.13 216.76 -67.06)"  >
<path style="stroke: none; stroke-width: 1; stroke-dasharray: none; stroke-linecap: butt; stroke-dashoffset: 0; stroke-linejoin: miter; stroke-miterlimit: 4; fill: rgb(90,44,44); fill-rule: nonzero; opacity: 1;" vector-effect="non-scaling-stroke"  transform=" translate(-4133.21, -3175.96)" d="M 4065 3301 C 4014 3270 3997 3243 3992 3187 C 3989 3145 3993 3129 4012 3100 C 4079 3000 4219 3014 4265 3125 C 4282 3165 4278 3204 4253 3253 C 4222 3315 4126 3339 4065 3301 z" stroke-linecap="round" />
</g>
		<g transform="matrix(0.13 0 0 -0.13 -7.6 -35.78)"  >
<path style="stroke: none; stroke-width: 1; stroke-dasharray: none; stroke-linecap: butt; stroke-dashoffset: 0; stroke-linejoin: miter; stroke-miterlimit: 4; fill: rgb(90,44,44); fill-rule: nonzero; opacity: 1;" vector-effect="non-scaling-stroke"  transform=" translate(-2450.48, -2941.35)" d="M 2240 3123 C 2213 3109 2204 3098 2202 3074 C 2197 3020 2219 3009 2310 3016 C 2378 3022 2394 3020 2434 3001 C 2495 2971 2554 2902 2570 2843 C 2576 2816 2586 2785 2590 2773 C 2603 2742 2644 2734 2676 2755 C 2700 2770 2702 2777 2698 2823 C 2688 2933 2599 3050 2485 3105 C 2407 3142 2293 3151 2240 3123 z" stroke-linecap="round" />
</g>
		<g transform="matrix(0.13 0 0 -0.13 150.39 -26.83)"  >
<path style="stroke: none; stroke-width: 1; stroke-dasharray: none; stroke-linecap: butt; stroke-dashoffset: 0; stroke-linejoin: miter; stroke-miterlimit: 4; fill: rgb(90,44,44); fill-rule: nonzero; opacity: 1;" vector-effect="non-scaling-stroke"  transform=" translate(-3635.4, -2874.25)" d="M 3568 2999 C 3519 2973 3486 2911 3493 2858 C 3512 2715 3698 2682 3762 2810 C 3799 2883 3773 2960 3700 2998 C 3646 3025 3617 3025 3568 2999 z" stroke-linecap="round" />
</g>
		<g transform="matrix(0.13 0 0 -0.13 194.76 -26.93)"  >
<path style="stroke: none; stroke-width: 1; stroke-dasharray: none; stroke-linecap: butt; stroke-dashoffset: 0; stroke-linejoin: miter; stroke-miterlimit: 4; fill: rgb(90,44,44); fill-rule: nonzero; opacity: 1;" vector-effect="non-scaling-stroke"  transform=" translate(-3968.24, -2874.96)" d="M 3900 3000 C 3802 2948 3804 2793 3904 2746 C 3964 2717 4031 2732 4079 2784 C 4113 2821 4119 2902 4091 2948 C 4048 3016 3970 3038 3900 3000 z" stroke-linecap="round" />
</g>
		<g transform="matrix(0.13 0 0 -0.13 -23.26 -10.6)"  >
<path style="stroke: none; stroke-width: 1; stroke-dasharray: none; stroke-linecap: butt; stroke-dashoffset: 0; stroke-linejoin: miter; stroke-miterlimit: 4; fill: rgb(90,44,44); fill-rule: nonzero; opacity: 1;" vector-effect="non-scaling-stroke"  transform=" translate(-2333.07, -2752.5)" d="M 2239 2841 C 2204 2806 2200 2797 2200 2751 C 2200 2707 2205 2695 2234 2662 C 2266 2627 2272 2625 2328 2625 C 2378 2625 2393 2629 2415 2650 C 2453 2684 2473 2735 2464 2773 C 2449 2844 2402 2880 2324 2880 C 2283 2880 2273 2875 2239 2841 z" stroke-linecap="round" />
</g>
		<g transform="matrix(0.13 0 0 -0.13 -152.22 -3.38)"  >
<path style="stroke: none; stroke-width: 1; stroke-dasharray: none; stroke-linecap: butt; stroke-dashoffset: 0; stroke-linejoin: miter; stroke-miterlimit: 4; fill: rgb(90,44,44); fill-rule: nonzero; opacity: 1;" vector-effect="non-scaling-stroke"  transform=" translate(-1365.85, -2698.35)" d="M 960 2831 C 944 2800 948 2782 976 2764 C 999 2748 1031 2747 1313 2753 C 1644 2760 1665 2758 1681 2714 C 1685 2702 1683 2683 1676 2669 C 1666 2649 1656 2645 1620 2644 C 1554 2643 1552 2642 1545 2620 C 1524 2555 1625 2523 1713 2567 C 1779 2600 1803 2714 1758 2780 C 1710 2849 1705 2850 1318 2850 C 985 2850 970 2849 960 2831 z" stroke-linecap="round" />
</g>
		<g transform="matrix(0.13 0 0 -0.13 172.21 12.46)"  >
<path style="stroke: none; stroke-width: 1; stroke-dasharray: none; stroke-linecap: butt; stroke-dashoffset: 0; stroke-linejoin: miter; stroke-miterlimit: 4; fill: rgb(90,44,44); fill-rule: nonzero; opacity: 1;" vector-effect="non-scaling-stroke"  transform=" translate(-3799.07, -2579.58)" d="M 3731 2703 C 3683 2679 3660 2636 3660 2571 C 3660 2522 3663 2514 3699 2479 C 3734 2443 3742 2440 3791 2440 C 3890 2440 3947 2499 3937 2593 C 3928 2692 3821 2749 3731 2703 z" stroke-linecap="round" />
</g>
		<g transform="matrix(0.13 0 0 -0.13 -158.31 4.73)"  >
<path style="stroke: none; stroke-width: 1; stroke-dasharray: none; stroke-linecap: butt; stroke-dashoffset: 0; stroke-linejoin: miter; stroke-miterlimit: 4; fill: rgb(90,44,44); fill-rule: nonzero; opacity: 1;" vector-effect="non-scaling-stroke"  transform=" translate(-1320.18, -2637.5)" d="M 1161 2666 C 1154 2658 1150 2639 1152 2623 L 1155 2595 L 1314 2595 C 1452 2595 1474 2597 1483 2612 C 1491 2624 1491 2636 1482 2654 L 1470 2680 L 1321 2680 C 1204 2680 1170 2677 1161 2666 z" stroke-linecap="round" />
</g>
		<g transform="matrix(0.13 0 0 -0.13 47.13 116)"  >
<path style="stroke: none; stroke-width: 1; stroke-dasharray: none; stroke-linecap: butt; stroke-dashoffset: 0; stroke-linejoin: miter; stroke-miterlimit: 4; fill: rgb(90,44,44); fill-rule: nonzero; opacity: 1;" vector-effect="non-scaling-stroke"  transform=" translate(-2861, -1803)" d="M 2776 2110 C 2633 2054 2560 1947 2560 1794 C 2560 1689 2586 1624 2655 1561 C 2723 1499 2788 1476 2890 1476 C 3008 1477 3097 1526 3140 1615 C 3170 1678 3163 1690 3094 1690 C 3040 1690 3036 1688 3001 1648 C 2965 1608 2960 1606 2897 1602 C 2819 1597 2770 1619 2730 1677 C 2685 1743 2692 1872 2744 1943 C 2809 2031 2958 2031 3015 1942 C 3034 1913 3039 1911 3098 1910 L 3162 1910 L 3155 1943 C 3125 2086 2933 2171 2776 2110 z" stroke-linecap="round" />
</g>
		<g transform="matrix(0.13 0 0 -0.13 -221 116.47)"  >
<path style="stroke: none; stroke-width: 1; stroke-dasharray: none; stroke-linecap: butt; stroke-dashoffset: 0; stroke-linejoin: miter; stroke-miterlimit: 4; fill: rgb(90,44,44); fill-rule: nonzero; opacity: 1;" vector-effect="non-scaling-stroke"  transform=" translate(-850, -1799.5)" d="M 460 2102 C 460 2097 485 1991 515 1864 C 546 1738 578 1602 587 1562 L 603 1489 L 674 1492 L 745 1495 L 795 1682 C 822 1785 847 1867 850 1864 C 853 1861 878 1777 905 1677 L 955 1495 L 1023 1492 C 1060 1490 1090 1491 1090 1492 C 1090 1494 1121 1619 1159 1770 C 1197 1921 1230 2060 1234 2078 L 1240 2110 L 1175 2110 C 1139 2110 1110 2108 1110 2106 C 1110 2090 1026 1722 1020 1711 C 1016 1703 998 1758 976 1851 C 955 1936 932 2029 924 2058 L 909 2110 L 845 2110 L 782 2110 L 735 1918 C 709 1812 684 1719 680 1711 C 672 1696 671 1699 618 1955 L 587 2110 L 523 2110 C 488 2110 460 2106 460 2102 z" stroke-linecap="round" />
</g>
		<g transform="matrix(0.13 0 0 -0.13 187.93 122.03)"  >
<path style="stroke: none; stroke-width: 1; stroke-dasharray: none; stroke-linecap: butt; stroke-dashoffset: 0; stroke-linejoin: miter; stroke-miterlimit: 4; fill: rgb(90,44,44); fill-rule: nonzero; opacity: 1;" vector-effect="non-scaling-stroke"  transform=" translate(-3916.94, -1757.79)" d="M 3875 2031 C 3757 2011 3698 1903 3749 1801 C 3764 1772 3781 1758 3827 1737 C 3859 1723 3904 1707 3927 1701 C 3977 1687 4000 1667 4000 1635 C 4000 1583 3907 1561 3856 1601 C 3842 1612 3830 1628 3830 1636 C 3830 1647 3815 1650 3770 1650 L 3710 1650 L 3716 1623 C 3732 1557 3762 1521 3823 1495 C 3864 1478 3958 1475 4010 1490 C 4058 1503 4107 1556 4118 1606 C 4141 1709 4098 1765 3962 1806 C 3870 1834 3840 1852 3840 1880 C 3840 1900 3866 1925 3898 1935 C 3928 1944 3988 1923 4000 1899 C 4014 1874 4110 1871 4110 1895 C 4110 1945 4041 2016 3982 2025 C 3962 2029 3938 2033 3930 2035 C 3922 2036 3897 2034 3875 2031 z" stroke-linecap="round" />
</g>
		<g transform="matrix(0.13 0 0 -0.13 -153 122.33)"  >
<path style="stroke: none; stroke-width: 1; stroke-dasharray: none; stroke-linecap: butt; stroke-dashoffset: 0; stroke-linejoin: miter; stroke-miterlimit: 4; fill: rgb(90,44,44); fill-rule: nonzero; opacity: 1;" vector-effect="non-scaling-stroke"  transform=" translate(-1360, -1755.5)" d="M 1300 1755 L 1300 1490 L 1360 1490 L 1420 1490 L 1418 1753 L 1415 2015 L 1358 2018 L 1300 2021 L 1300 1755 z" stroke-linecap="round" />
</g>
		<g transform="matrix(0.13 0 0 -0.13 -101.67 122.35)"  >
<path style="stroke: none; stroke-width: 1; stroke-dasharray: none; stroke-linecap: butt; stroke-dashoffset: 0; stroke-linejoin: miter; stroke-miterlimit: 4; fill: rgb(90,44,44); fill-rule: nonzero; opacity: 1;" vector-effect="non-scaling-stroke"  transform=" translate(-1745, -1755.37)" d="M 1520 1755 L 1520 1490 L 1575 1490 L 1630 1490 L 1632 1653 L 1635 1815 L 1717 1690 C 1858 1474 1842 1490 1911 1490 L 1970 1490 L 1970 1755 L 1970 2021 L 1913 2018 L 1855 2015 L 1850 1860 L 1845 1705 L 1794 1785 C 1766 1829 1722 1900 1696 1943 L 1648 2020 L 1584 2020 L 1520 2020 L 1520 1755 z" stroke-linecap="round" />
</g>
		<g transform="matrix(0.13 0 0 -0.13 -30.67 122.4)"  >
<path style="stroke: none; stroke-width: 1; stroke-dasharray: none; stroke-linecap: butt; stroke-dashoffset: 0; stroke-linejoin: miter; stroke-miterlimit: 4; fill: rgb(90,44,44); fill-rule: nonzero; opacity: 1;" vector-effect="non-scaling-stroke"  transform=" translate(-2277.5, -1755)" d="M 2087 2013 C 2083 2010 2080 1890 2080 1748 L 2080 1490 L 2278 1492 L 2475 1495 L 2475 1545 L 2475 1595 L 2338 1598 L 2200 1601 L 2200 1650 L 2200 1700 L 2320 1700 L 2440 1700 L 2440 1750 L 2440 1800 L 2320 1800 L 2200 1800 L 2200 1855 L 2200 1910 L 2335 1910 L 2470 1910 L 2470 1965 L 2470 2020 L 2282 2020 C 2178 2020 2090 2017 2087 2013 z" stroke-linecap="round" />
</g>
		<g transform="matrix(0.13 0 0 -0.13 123 122.31)"  >
<path style="stroke: none; stroke-width: 1; stroke-dasharray: none; stroke-linecap: butt; stroke-dashoffset: 0; stroke-linejoin: miter; stroke-miterlimit: 4; fill: rgb(90,44,44); fill-rule: nonzero; opacity: 1;" vector-effect="non-scaling-stroke"  transform=" translate(-3430, -1755.69)" d="M 3345 1987 C 3326 1940 3180 1509 3180 1498 C 3180 1493 3208 1490 3242 1492 L 3303 1495 L 3320 1545 L 3337 1595 L 3430 1595 L 3523 1595 L 3540 1545 L 3557 1495 L 3618 1492 C 3652 1490 3680 1493 3680 1498 C 3680 1509 3534 1940 3515 1987 C 3501 2020 3501 2020 3430 2020 C 3359 2020 3359 2020 3345 1987 z M 3463 1793 C 3477 1745 3488 1704 3486 1702 C 3484 1701 3458 1700 3428 1702 L 3373 1705 L 3399 1792 C 3413 1841 3428 1880 3431 1880 C 3434 1880 3449 1841 3463 1793 z" stroke-linecap="round" />
</g>
		<g transform="matrix(0.13 0 0 -0.13 246.67 122.4)"  >
<path style="stroke: none; stroke-width: 1; stroke-dasharray: none; stroke-linecap: butt; stroke-dashoffset: 0; stroke-linejoin: miter; stroke-miterlimit: 4; fill: rgb(90,44,44); fill-rule: nonzero; opacity: 1;" vector-effect="non-scaling-stroke"  transform=" translate(-4357.5, -1755)" d="M 4160 1965 L 4160 1910 L 4230 1910 L 4300 1910 L 4300 1700 L 4300 1490 L 4360 1490 L 4420 1490 L 4420 1700 L 4420 1909 L 4488 1912 L 4555 1915 L 4555 1965 L 4555 2015 L 4358 2018 L 4160 2020 L 4160 1965 z" stroke-linecap="round" />
</g>
</g>
</g>
<g transform="matrix(NaN NaN NaN NaN 0 0)"  >
<g style=""   >
</g>
</g>
<g transform="matrix(NaN NaN NaN NaN 0 0)"  >
<g style=""   >
</g>
</g>
</svg>